<?xml version="1.0" encoding="UTF-8"?>
<svg width="60px" height="60px" viewBox="0 0 60 60" version="1.1" xmlns="http://www.w3.org/2000/svg" xmlns:xlink="http://www.w3.org/1999/xlink">
    <title>logo</title>
    <g id="logo" stroke="none" stroke-width="1" fill="none" fill-rule="evenodd">
        <g id="broccoli" transform="translate(2, 3)" fill-rule="nonzero">
            <polygon id="Path" fill="#95D528" points="23.8737777 23.2624256 31.8842375 23.2624256 31.8842375 52.2354302 23.8737777 52.2354302"></polygon>
            <polygon id="Path" fill="#89C627" points="29.0017888 23.2624256 31.8842375 23.2624256 31.8842375 52.2354302 29.0017888 52.2354302"></polygon>
            <path d="M44.9815836,27.7784868 L39.8453694,32.3102903 C36.7576253,35.0348107 34.4332041,38.5233284 33.084401,42.3902121 C33.4116487,39.2292004 34.1232375,36.1138744 35.2028706,33.1266887 L38.7553458,23.2982036 L35.5524306,22.1253465 L31.9999554,31.9539417 C30.7924638,35.2947239 30.0080318,38.7754256 29.6653623,42.3135921 L29.4828167,44.1982658 C29.373005,45.3322625 28.4436521,46.235739 27.3117381,46.2421239 C26.0971372,46.2489493 25.1104722,45.260046 25.1104722,44.0391914 L25.1104722,29.6729581 L21.7022616,29.6729581 L21.7022616,40.18783 C20.7294872,38.0742873 19.5166362,36.0717115 18.0823025,34.2283201 L13.4583973,28.2857635 L10.7751191,30.4008473 L15.3990243,36.3434039 C18.2363014,39.9900053 20.100804,44.337855 20.7908461,48.9169955 L21.3758889,52.7989609 C21.4800132,53.4895309 22.0697591,53.9998899 22.7637386,53.9998899 L33.0853853,53.9998899 C33.7729118,53.9998899 34.3591577,53.4987781 34.47061,52.8159141 L35.422494,46.9797007 C36.1848325,42.305776 38.5534409,38.0120887 42.0922444,34.8897172 L47.2284585,30.3579137 L44.9815836,27.7784868 Z" id="Path" fill="#B9EA6A"></path>
            <path d="M44.9815836,27.7784868 L39.8453694,32.3102903 C36.7576253,35.0348107 34.4332041,38.5233284 33.084401,42.3902121 C33.2467123,40.8225863 33.5037418,39.2662994 33.8530831,37.7312591 C31.7847069,40.4153779 30.3916072,43.5978563 29.840033,46.9798108 L28.888149,52.8160242 C28.776806,53.4988882 28.1904507,54 27.5029243,54 L33.0853853,54 C33.7729118,54 34.3592671,53.4988882 34.47061,52.8160242 L35.422494,46.9798108 C36.1848325,42.3058861 38.5534409,38.0121988 42.0922444,34.8898273 L47.2283492,30.3580238 L44.9815836,27.7784868 Z" id="Path" fill="#A1E42C"></path>
            <path d="M47.0884595,15.3696941 C46.760118,15.3645201 46.4357141,15.3770699 46.1162319,15.4062427 C44.8348034,15.5234844 43.7198424,14.5499932 43.6414211,13.2573624 C43.6396711,13.2276392 43.6377023,13.197916 43.6356242,13.1681927 C43.3201889,8.67139656 39.7180578,5.04736285 35.2501202,4.73372761 C34.4771725,4.67945518 33.7233653,4.72348961 32.9996359,4.8540517 C32.1297826,5.01103445 31.24932,4.64125531 30.7443392,3.91138461 C29.1044912,1.5414515 26.3763696,-0.00734953845 23.2897193,0 C20.2028502,0.00729191002 17.4804161,1.56842259 15.8512868,3.94617181 C15.3820713,4.6310173 14.566577,5.00288808 13.7465984,4.89852647 C13.3679448,4.85030877 12.9820725,4.82575958 12.5902939,4.82664026 C7.58926634,4.83841948 3.54449768,8.92855764 3.5563101,13.9621335 C3.55762259,14.543388 3.61373157,15.1114322 3.71884021,15.6619727 C3.86868292,16.4461158 3.60323165,17.2535972 3.01250139,17.7867441 C1.12929578,19.486363 -0.0427585419,21.9671528 0.00153802406,24.7220569 C0.0785374868,29.5203788 3.91276074,33.4830373 8.676665,33.6784401 C11.0185862,33.7745453 13.1711805,32.9744397 14.8272158,31.5926392 C15.6384446,30.9157199 16.7984677,30.9178115 17.6133058,31.5903274 C19.242435,32.9348087 21.3448266,33.7187316 23.6306388,33.6481665 C28.2351848,33.5060453 32.0376895,29.8381974 32.3774059,25.2141417 C32.3825465,25.1440169 32.3869215,25.0740021 32.3904214,25.0040975 C32.4498116,23.8308 33.4325392,22.9387725 34.5996716,22.939323 L34.6249371,22.939323 C34.9317318,22.9385524 35.2349172,22.9224798 35.533837,22.8917658 C36.7581722,22.7657172 37.8391178,23.7158702 37.9013517,24.9530175 C37.9047423,25.0193994 37.9087892,25.0858914 37.9134923,25.1526036 C38.2377869,29.6860584 41.9006207,33.3204402 46.4090267,33.5813442 C51.7625675,33.8911264 56.1762555,29.5199385 55.9945849,24.1642508 C55.8306329,19.3417099 51.8820042,15.4446627 47.0884595,15.3696941 L47.0884595,15.3696941 Z" id="Path" fill="#118E5E"></path>
            <path d="M55.9942568,24.1642508 C55.9509446,22.8883531 55.6405405,21.678397 55.1217785,20.5855725 C53.6030078,23.8285983 50.23975,26.0258064 46.3905425,25.8031022 C41.8822458,25.5421982 38.2193026,21.9078164 37.895008,17.3743616 C37.8901956,17.3076494 37.8861487,17.2411574 37.8828675,17.1747755 C37.8206335,15.9376282 36.7397973,14.9874752 35.5153528,15.1135238 C35.216433,15.1442378 34.9132476,15.1604205 34.6064528,15.161081 C34.598031,15.161081 34.5896092,15.161081 34.5811874,15.161081 C33.4139455,15.1605306 32.4313274,16.0525581 32.3719372,17.2258555 C32.3684372,17.2956501 32.3640622,17.3656648 32.3589216,17.4358997 C32.0193146,22.0599554 28.2167005,25.7278033 23.6121545,25.8699245 C21.3263424,25.9404896 19.2238414,25.1565667 17.5948215,23.8120854 C16.7798741,23.1395695 15.6199603,23.1374779 14.8087316,23.8143972 C13.1526963,25.1961977 11.0001019,25.9963033 8.65818075,25.9001981 C5.22022036,25.7591779 2.26722534,23.6557632 0.860344532,20.6925762 C0.288973519,21.9121098 -0.0219774369,23.2793789 0.00120990135,24.7220569 C0.0782093641,29.5202688 3.91243261,33.4830373 8.67633688,33.6784401 C11.018258,33.7745453 13.1708524,32.9744397 14.8268877,31.5926392 C15.6381164,30.9157199 16.7981396,30.9178115 17.6129777,31.5903274 C19.2421069,32.9348087 21.3444985,33.7187316 23.6303107,33.6481665 C28.2348567,33.5060453 32.0373614,29.8381974 32.3770778,25.2141417 C32.3822184,25.1440169 32.3865933,25.0740021 32.3900933,25.0040975 C32.4494835,23.8308 33.432211,22.9387725 34.5993435,22.939323 L34.6244996,22.939323 C34.9312943,22.9385524 35.2344797,22.9224798 35.5333995,22.8917658 C36.7577347,22.7658273 37.8386803,23.7158702 37.9009142,24.9530175 C37.9041955,25.0193994 37.9083517,25.0858914 37.9130548,25.1526036 C38.2373494,29.6860584 41.9001832,33.3204402 46.4085893,33.5813442 C51.76213,33.8912365 56.175818,29.5200486 55.9942568,24.1642508 Z" id="Path" fill="#017B4F"></path>
            <ellipse id="Oval" fill="#017B4F" cx="15.2594628" cy="13.6466268" rx="1.12053906" ry="1.12783188"></ellipse>
            <ellipse id="Oval" fill="#017B4F" cx="18.5298619" cy="10.6878433" rx="1.12053906" ry="1.12783188"></ellipse>
            <ellipse id="Oval" fill="#017B4F" cx="19.6504009" cy="18.5880606" rx="1.12053906" ry="1.12783188"></ellipse>
            <ellipse id="Oval" fill="#017B4F" cx="22.6072241" cy="18.5880606" rx="1.12053906" ry="1.12783188"></ellipse>
            <ellipse id="Oval" fill="#017B4F" cx="27.5030337" cy="14.3807909" rx="1.12053906" ry="1.12783188"></ellipse>
            <ellipse id="Oval" fill="#017B4F" cx="48.5477306" cy="21.0839322" rx="1.12053906" ry="1.12783188"></ellipse>
            <ellipse id="Oval" fill="#017B4F" cx="6.11982346" cy="21.0839322" rx="1.12053906" ry="1.12783188"></ellipse>
            <ellipse id="Oval" fill="#118E5E" cx="10.7751191" cy="28.4522136" rx="1.12053906" ry="1.12783188"></ellipse>
        </g>
    </g>
</svg>